<svg xmlns="http://www.w3.org/2000/svg" width="820" height="480" viewBox="0 0 820 480">
<rect width="100%" height="100%" fill="#ffffff"/>
<text x="410.0" y="32" text-anchor="middle" font-family="Arial" font-size="22" font-weight="700" fill="#1f2933">Attack Success Rate by Defense</text>
<line x1="90" y1="390.0" x2="780" y2="390.0" stroke="#e5e7eb" stroke-width="1"/>
<text x="78" y="394.0" text-anchor="end" font-family="Arial" font-size="12" fill="#4b5563">0.00</text>
<line x1="90" y1="326.0" x2="780" y2="326.0" stroke="#e5e7eb" stroke-width="1"/>
<text x="78" y="330.0" text-anchor="end" font-family="Arial" font-size="12" fill="#4b5563">0.10</text>
<line x1="90" y1="262.0" x2="780" y2="262.0" stroke="#e5e7eb" stroke-width="1"/>
<text x="78" y="266.0" text-anchor="end" font-family="Arial" font-size="12" fill="#4b5563">0.20</text>
<line x1="90" y1="198.0" x2="780" y2="198.0" stroke="#e5e7eb" stroke-width="1"/>
<text x="78" y="202.0" text-anchor="end" font-family="Arial" font-size="12" fill="#4b5563">0.30</text>
<line x1="90" y1="134.0" x2="780" y2="134.0" stroke="#e5e7eb" stroke-width="1"/>
<text x="78" y="138.0" text-anchor="end" font-family="Arial" font-size="12" fill="#4b5563">0.40</text>
<line x1="90" y1="70.0" x2="780" y2="70.0" stroke="#e5e7eb" stroke-width="1"/>
<text x="78" y="74.0" text-anchor="end" font-family="Arial" font-size="12" fill="#4b5563">0.50</text>
<line x1="90" y1="70" x2="90" y2="390" stroke="#111827" stroke-width="1.5"/>
<line x1="90" y1="390" x2="780" y2="390" stroke="#111827" stroke-width="1.5"/>
<text x="25" y="230.0" transform="rotate(-90 25 230.0)" text-anchor="middle" font-family="Arial" font-size="14" fill="#374151">ASR</text>
<rect x="118.0" y="176.7" width="137.5" height="213.3" fill="#2f6f7e" rx="3"/>
<text x="186.8" y="168.7" text-anchor="middle" font-family="Arial" font-size="13" fill="#111827">0.3333</text>
<text x="186.8" y="414" text-anchor="middle" font-family="Arial" font-size="12" fill="#374151">none</text>
<rect x="283.5" y="390.0" width="137.5" height="0.0" fill="#2f6f7e" rx="3"/>
<text x="352.2" y="382.0" text-anchor="middle" font-family="Arial" font-size="13" fill="#111827">0.0000</text>
<text x="352.2" y="414" text-anchor="middle" font-family="Arial" font-size="12" fill="#374151">input</text>
<rect x="449.0" y="198.0" width="137.5" height="192.0" fill="#2f6f7e" rx="3"/>
<text x="517.8" y="190.0" text-anchor="middle" font-family="Arial" font-size="13" fill="#111827">0.3000</text>
<text x="517.8" y="414" text-anchor="middle" font-family="Arial" font-size="12" fill="#374151">output</text>
<rect x="614.5" y="390.0" width="137.5" height="0.0" fill="#2f6f7e" rx="3"/>
<text x="683.2" y="382.0" text-anchor="middle" font-family="Arial" font-size="13" fill="#111827">0.0000</text>
<text x="683.2" y="414" text-anchor="middle" font-family="Arial" font-size="12" fill="#374151">layered</text>
</svg>